<svg width="355" height="345" viewBox="0 0 355 345" fill="none" xmlns="http://www.w3.org/2000/svg">
<g clip-path="url(#clip0_710_1523)">
<path d="M25.5462 107.659C37.5147 103.215 50.4582 100.806 63.9617 100.806C125.049 100.806 174.583 150.392 174.583 211.545C174.583 272.697 125.049 322.283 63.9617 322.283C2.87443 322.283 -46.6592 272.697 -46.6592 211.545C-46.6592 169.268 -22.9918 132.514 11.8145 113.867" stroke="#5A5A5A" stroke-width="0.72824" stroke-miterlimit="10"/>
<path d="M33.304 124.603C42.8871 121.218 53.217 119.37 63.9617 119.37C114.802 119.37 156.039 160.629 156.039 211.545C156.039 262.46 114.823 303.72 63.9617 303.72C13.1006 303.72 -28.1152 262.46 -28.1152 211.545C-28.1152 176.722 -8.80376 146.385 19.676 130.728" stroke="#5A5A5A" stroke-width="0.72824" stroke-miterlimit="10"/>
<path d="M68.3799 208.991C66.9486 207.226 65.787 205.253 64.9573 203.156L37.5977 134.279C37.5977 134.279 25.7121 107.326 22.1651 100.806C20.319 95.3659 18.7633 91.1299 18.7633 91.1299L3.72485 96.6118L24.7787 141.713C24.7787 141.713 44.9821 181.561 49.4625 189.742C53.943 197.923 56.4321 203.737 57.3448 205.274C60.5806 210.777 57.8841 216.217 63.5883 215.905C69.3133 215.615 69.5 210.361 68.3799 208.991Z" stroke="#5A5A5A" stroke-width="0.72824" stroke-miterlimit="10"/>
<path d="M4.6583 96.2588L2.4181 94.0369C2.4181 94.0369 1.11131 92.5834 -1.83416 96.2588C-4.77962 99.9341 -117.392 242.09 -117.392 242.09" stroke="#5A5A5A" stroke-width="0.72824" stroke-miterlimit="10"/>
<path d="M17.5603 91.566C17.5603 91.566 18.473 90.0294 17.9959 89.0326C17.6018 88.1605 8.62018 61.5193 6.23476 54.4801C5.90288 53.5041 5.59173 53.5249 4.61682 53.8571L-8.47183 58.1554C-9.36376 58.4461 -8.86593 59.0068 -8.69999 59.9412C-8.69999 59.9412 -7.93252 62.5576 -11.4795 62.5576C-15.0265 62.5576 -61.9673 64.7171 -93.9111 66.3367C-121.852 67.7488 -136.745 68.2471 -141.121 68.3717C-141.723 68.3925 -147.801 68.7039 -148.423 68.787C-150.622 69.0777 -157.736 69.6176 -161.034 69.7006C-167.631 69.846 -185.469 70.4689 -187.274 70.5105C-187.398 70.5105 -188.27 70.3859 -188.394 70.3651C-189.016 70.2613 -190.323 69.7214 -190.904 68.081C-191.589 66.1083 -192.439 62.8275 -192.439 62.8275" stroke="#5A5A5A" stroke-width="0.72824" stroke-miterlimit="10"/>
<path d="M5.81992 53.4211C5.81992 53.4211 5.42579 52.1752 3.89083 51.3446C2.35587 50.4933 1.50543 49.3304 0.343834 45.4682C-0.817759 41.6059 -5.89972 27.0083 -5.89972 27.0083" stroke="#5A5A5A" stroke-width="0.72824" stroke-miterlimit="10"/>
<path d="M-11.8529 16.8128L3.89079 9.85657" stroke="#5A5A5A" stroke-width="0.72824" stroke-miterlimit="10"/>
<path d="M-5.44336 26.5514C-5.44336 26.5514 -3.97064 26.1569 -2.29048 24.8487C-0.589575 23.5405 11.8975 18.204 11.8975 18.204" stroke="#5A5A5A" stroke-width="0.72824" stroke-miterlimit="10"/>
<path d="M10.6529 18.5777C14.6052 18.5777 17.8092 15.3703 17.8092 11.4138C17.8092 7.45736 14.6052 4.25 10.6529 4.25C6.70066 4.25 3.4967 7.45736 3.4967 11.4138C3.4967 15.3703 6.70066 18.5777 10.6529 18.5777Z" stroke="#5A5A5A" stroke-width="0.72824" stroke-miterlimit="10"/>
<path d="M63.9617 199.917C70.392 199.917 75.5776 205.128 75.5776 211.545C75.5776 217.961 70.3712 223.173 63.9617 223.173C57.5522 223.173 52.3458 217.961 52.3458 211.545C52.3458 208.119 53.8185 205.045 56.1832 202.907" stroke="#5A5A5A" stroke-width="0.72824" stroke-miterlimit="10"/>
<path d="M73.5863 212.936L147.078 171.863" stroke="#5A5A5A" stroke-width="0.72824" stroke-miterlimit="10"/>
<path d="M116.192 135.65L75.4117 209.614" stroke="#5A5A5A" stroke-width="0.72824" stroke-miterlimit="10"/>
<path d="M69.6452 204.485L155.79 218.272" stroke="#5A5A5A" stroke-width="0.72824" stroke-miterlimit="10"/>
<path d="M70.9312 218.272L152.595 186.564" stroke="#5A5A5A" stroke-width="0.72824" stroke-miterlimit="10"/>
<path d="M71.4291 202.761L55.4779 119.37" stroke="#5A5A5A" stroke-width="0.72824" stroke-miterlimit="10"/>
<path d="M102.419 127.78L73.13 204.381" stroke="#5A5A5A" stroke-width="0.72824" stroke-miterlimit="10"/>
<path d="M64.6669 202.429L138.677 157.702" stroke="#5A5A5A" stroke-width="0.72824" stroke-miterlimit="10"/>
<path d="M65.3722 201.287L155.582 202.429" stroke="#5A5A5A" stroke-width="0.72824" stroke-miterlimit="10"/>
<path d="M72.7773 207.599L139.756 263.872" stroke="#5A5A5A" stroke-width="0.72824" stroke-miterlimit="10"/>
<path d="M129.301 276.476L75.5776 211.731" stroke="#5A5A5A" stroke-width="0.72824" stroke-miterlimit="10"/>
<path d="M67.8613 222.508L147.907 249.461" stroke="#5A5A5A" stroke-width="0.72824" stroke-miterlimit="10"/>
<path d="M72.3625 219.56L153.114 234.615" stroke="#5A5A5A" stroke-width="0.72824" stroke-miterlimit="10"/>
<path d="M73.2129 218.584L86.675 300.875" stroke="#5A5A5A" stroke-width="0.72824" stroke-miterlimit="10"/>
<path d="M70.9312 303.45L72.7773 214.431" stroke="#5A5A5A" stroke-width="0.72824" stroke-miterlimit="10"/>
<path d="M60.4354 222.633L102.419 295.31" stroke="#5A5A5A" stroke-width="0.72824" stroke-miterlimit="10"/>
<path d="M54.5859 303.242L53.3829 216.528" stroke="#5A5A5A" stroke-width="0.72824" stroke-miterlimit="10"/>
<path d="M9.80246 286.09L68.9192 220.349" stroke="#5A5A5A" stroke-width="0.72824" stroke-miterlimit="10"/>
<path d="M23.2022 294.209L66.1812 219.768" stroke="#5A5A5A" stroke-width="0.72824" stroke-miterlimit="10"/>
<path d="M38.5519 300.169L55.063 214.431" stroke="#5A5A5A" stroke-width="0.72824" stroke-miterlimit="10"/>
<path d="M-2.7469 275.085L53.3414 206.79" stroke="#5A5A5A" stroke-width="0.72824" stroke-miterlimit="10"/>
<path d="M-12.413 263.041L55.8927 207.599" stroke="#5A5A5A" stroke-width="0.72824" stroke-miterlimit="10"/>
<path d="M58.776 219.768L116.607 287.149" stroke="#5A5A5A" stroke-width="0.72824" stroke-miterlimit="10"/>
<path d="M-19.9841 249.461L56.6187 220.577" stroke="#5A5A5A" stroke-width="0.72824" stroke-miterlimit="10"/>
<path d="M-25.2113 234.614L59.0664 222.093" stroke="#5A5A5A" stroke-width="0.72824" stroke-miterlimit="10"/>
<path d="M52.9265 215.241L-19.5277 172.632" stroke="#5A5A5A" stroke-width="0.72824" stroke-miterlimit="10"/>
<path d="M-25.0453 187.873L57.2618 216.757" stroke="#5A5A5A" stroke-width="0.72824" stroke-miterlimit="10"/>
<path d="M-27.8041 219.186L55.8928 201.847" stroke="#5A5A5A" stroke-width="0.72824" stroke-miterlimit="10"/>
<path d="M-27.6795 202.429L55.4781 203.592" stroke="#5A5A5A" stroke-width="0.72824" stroke-miterlimit="10"/>
<path d="M55.063 211.379L40.9787 173.421" stroke="#5A5A5A" stroke-width="0.72824" stroke-miterlimit="10"/>
<path d="M52.5117 209.8L10.6529 136.376" stroke="#5A5A5A" stroke-width="0.72824" stroke-miterlimit="10"/>
<path d="M51.8479 194.185L-11.3136 158.449" stroke="#5A5A5A" stroke-width="0.72824" stroke-miterlimit="10"/>
<path d="M-1.12897 146.364L48.3009 187.561" stroke="#5A5A5A" stroke-width="0.72824" stroke-miterlimit="10"/>
<path d="M63.0283 198.276L128.202 145.533" stroke="#5A5A5A" stroke-width="0.72824" stroke-miterlimit="10"/>
<path d="M61.3896 194.185L87.2142 122.339" stroke="#5A5A5A" stroke-width="0.72824" stroke-miterlimit="10"/>
<path d="M58.05 185.796L70.9312 119.64" stroke="#5A5A5A" stroke-width="0.72824" stroke-miterlimit="10"/>
<path d="M67.7576 200.56L39.589 122.651" stroke="#5A5A5A" stroke-width="0.72824" stroke-miterlimit="10"/>
</g>
<path d="M-78.2091 165.087C-78.2091 166.16 -77.3397 167.029 -76.2672 167.029C-75.1946 167.029 -74.3252 166.16 -74.3252 165.087C-74.3252 164.015 -75.1946 163.145 -76.2672 163.145C-77.3397 163.145 -78.2091 164.015 -78.2091 165.087ZM187.356 35.4678V35.1037H187.271L187.195 35.141L187.356 35.4678ZM354.851 35.1037H187.356V35.8319H354.851V35.1037ZM187.195 35.141L-76.4278 164.76L-76.1065 165.414L187.517 35.7945L187.195 35.141Z" fill="#B7B7B7"/>
<path d="M145.361 159.99C145.361 161.062 146.23 161.931 147.303 161.931C148.375 161.931 149.245 161.062 149.245 159.99C149.245 158.917 148.375 158.048 147.303 158.048C146.23 158.048 145.361 158.917 145.361 159.99ZM354.851 159.625H187.356V160.354H354.851V159.625ZM187.356 159.625H147.303V160.354H187.356V159.625Z" fill="#B7B7B7"/>
<path d="M-34.5147 243.824C-34.5147 244.896 -33.6453 245.766 -32.5728 245.766C-31.5002 245.766 -30.6308 244.896 -30.6308 243.824C-30.6308 242.751 -31.5002 241.882 -32.5728 241.882C-33.6453 241.882 -34.5147 242.751 -34.5147 243.824ZM187.356 294.714L187.274 295.069L187.314 295.078H187.356V294.714ZM354.851 294.35H187.356V295.078H354.851V294.35ZM187.438 294.359L-32.4907 243.469L-32.6548 244.179L187.274 295.069L187.438 294.359Z" fill="#B7B7B7"/>
<defs>
<clipPath id="clip0_710_1523">
<rect width="565.114" height="318.241" fill="white" transform="translate(-390.428 4.14612)"/>
</clipPath>
</defs>
</svg>
