<svg width="1357" height="456" viewBox="0 0 1357 456" fill="none" xmlns="http://www.w3.org/2000/svg">
<g clip-path="url(#clip0_10_531)">
<path d="M886.075 148.757C903.183 142.405 921.684 138.962 940.985 138.962C1028.3 138.962 1099.1 209.839 1099.1 297.248C1099.1 384.657 1028.3 455.534 940.985 455.534C853.669 455.534 782.867 384.657 782.867 297.248C782.867 236.819 816.697 184.284 866.448 157.631" stroke="#5A5A5A" stroke-width="1.04092" stroke-miterlimit="10"/>
<path d="M897.164 172.976C910.862 168.138 925.627 165.497 940.985 165.497C1013.65 165.497 1072.6 224.472 1072.6 297.248C1072.6 370.025 1013.68 429 940.985 429C868.286 429 809.373 370.025 809.373 297.248C809.373 247.474 836.977 204.111 877.685 181.732" stroke="#5A5A5A" stroke-width="1.04092" stroke-miterlimit="10"/>
<path d="M551.19 175.796C582.292 201.855 603.254 239.668 607.227 282.438" stroke="#5A5A5A" stroke-width="1.04092" stroke-miterlimit="10"/>
<path d="M598.451 351.237C576.392 412.082 518.162 455.534 449.762 455.534C362.446 455.534 291.644 384.657 291.644 297.248C291.644 209.839 362.446 138.962 449.762 138.962C485.4 138.962 518.28 150.745 544.698 170.661" stroke="#5A5A5A" stroke-width="1.04092" stroke-miterlimit="10"/>
<path d="M533.49 195.592C562.724 219.752 581.373 256.319 581.373 297.248C581.373 300.958 581.225 304.638 580.928 308.289" stroke="#5A5A5A" stroke-width="1.04092" stroke-miterlimit="10"/>
<path d="M579.357 320.369C568.446 382.105 514.574 429 449.762 429C377.092 429 318.18 369.995 318.18 297.248C318.18 224.501 377.092 165.497 449.791 165.497C478.847 165.497 505.709 174.935 527.501 190.903" stroke="#5A5A5A" stroke-width="1.04092" stroke-miterlimit="10"/>
<path d="M474.845 310.189C470.16 319.271 460.702 325.474 449.791 325.474C434.225 325.474 421.595 312.83 421.595 297.248C421.595 281.666 434.225 269.022 449.791 269.022C452.104 269.022 454.357 269.289 456.492 269.823" stroke="#5A5A5A" stroke-width="1.04092" stroke-miterlimit="10"/>
<path d="M465.179 273.623C472.858 278.668 477.958 287.365 477.958 297.248C477.958 297.634 477.958 297.99 477.928 298.376" stroke="#5A5A5A" stroke-width="1.04092" stroke-miterlimit="10"/>
<path d="M695.848 398.28L690.57 410.123C690.303 410.746 689.681 411.162 688.999 411.162L649.091 411.251C647.816 411.251 646.957 409.885 647.52 408.758L653.361 396.974C653.657 396.381 654.25 396.025 654.902 396.025L694.276 395.876C695.522 395.847 696.381 397.152 695.848 398.28Z" stroke="#5A5A5A" stroke-width="1.04092" stroke-miterlimit="10"/>
<path d="M677.94 395.906C671.091 376.97 649.595 315.709 649.595 315.709C649.595 315.709 646.156 306.004 635.779 310.011C625.402 314.047 629.73 325.86 629.73 325.86L660.684 395.995" stroke="#5A5A5A" stroke-width="1.04092" stroke-miterlimit="10"/>
<path d="M649.032 368.63C625.165 374.684 600.052 361.892 591.276 338.266C581.847 312.949 594.745 284.782 620.035 275.344C645.326 265.905 673.463 278.816 682.891 304.134C690.748 325.296 683.069 348.417 665.576 360.972" stroke="#5A5A5A" stroke-width="1.04092" stroke-miterlimit="10"/>
<path d="M643.754 357.5C627.24 360.111 610.548 351 604.232 334.764C596.968 316.036 606.219 294.963 624.927 287.691C643.636 280.419 664.687 289.68 671.951 308.408C677.791 323.426 672.988 339.958 661.188 349.664" stroke="#5A5A5A" stroke-width="1.04092" stroke-miterlimit="10"/>
<path d="M947.3 293.597C945.254 291.075 943.594 288.255 942.408 285.257L903.301 186.807C903.301 186.807 886.312 148.282 881.242 138.962C878.604 131.186 876.38 125.131 876.38 125.131L854.884 132.967L884.978 197.433C884.978 197.433 913.856 254.39 920.26 266.084C926.665 277.778 930.222 286.088 931.527 288.285C936.152 296.15 932.298 303.926 940.451 303.481C948.634 303.066 948.901 295.556 947.3 293.597Z" stroke="#5A5A5A" stroke-width="1.04092" stroke-miterlimit="10"/>
<path d="M856.219 132.462L853.017 129.286C853.017 129.286 851.149 127.209 846.939 132.462C842.728 137.716 681.764 340.908 681.764 340.908" stroke="#5A5A5A" stroke-width="1.04092" stroke-miterlimit="10"/>
<path d="M874.66 125.755C874.66 125.755 875.965 123.558 875.283 122.134C874.72 120.887 861.882 82.8069 858.472 72.7453C857.998 71.3503 857.553 71.38 856.159 71.8548L837.451 77.9987C836.176 78.4142 836.888 79.2156 837.125 80.5512C837.125 80.5512 838.222 84.291 833.152 84.291C828.082 84.291 760.986 87.3777 715.327 89.6928C675.39 91.7111 654.102 92.4234 647.846 92.6015C646.986 92.6312 638.299 93.0764 637.41 93.1951C634.267 93.6106 624.097 94.3823 619.383 94.501C609.955 94.7088 584.457 95.5992 581.877 95.6586C581.699 95.6586 580.454 95.4805 580.276 95.4508C579.387 95.3024 577.519 94.5307 576.689 92.186C575.71 89.3663 574.495 84.6768 574.495 84.6768" stroke="#5A5A5A" stroke-width="1.04092" stroke-miterlimit="10"/>
<path d="M633.14 272.257C633.14 272.257 590.95 142.821 590.12 138.962C589.289 135.104 594.597 126.942 605.507 118.661C624.186 104.592 642.242 104.919 642.242 104.919C642.242 104.919 667.563 103.435 701.955 102.93C736.348 102.425 776.552 102.93 776.552 102.93C776.552 102.93 787.967 104.592 799.204 107.234C810.441 109.875 816.4 110.706 812.605 116.019C808.81 121.332 674.441 289.68 674.441 289.68" stroke="#5A5A5A" stroke-width="1.04092" stroke-miterlimit="10"/>
<path d="M619.087 275.7L578.705 148.787C578.705 148.787 578.201 145.462 575.562 148.787C572.923 152.081 462.095 277.125 462.095 277.125C462.095 277.125 454.594 286.623 461.206 292.677C466.306 295.794 469.686 297.426 485.133 299.415C500.58 301.403 589.704 309.031 589.704 309.031" stroke="#5A5A5A" stroke-width="1.04092" stroke-miterlimit="10"/>
<path d="M544.697 170.661L454.327 272.257C454.327 272.257 441.934 285.406 441.934 293.894C441.934 309.031 465.742 309.12 479.766 310.664C493.968 312.237 588.192 321.2 588.192 321.2" stroke="#5A5A5A" stroke-width="1.04092" stroke-miterlimit="10"/>
<path d="M560.649 88.624C560.649 88.624 570.937 124.122 572.923 130.414C574.91 136.706 572.923 138.962 572.923 138.962L544.697 170.661" stroke="#5A5A5A" stroke-width="1.04092" stroke-miterlimit="10"/>
<path d="M857.879 71.2313C857.879 71.2313 857.316 69.4505 855.122 68.2633C852.928 67.0464 851.712 65.3843 850.052 59.8637C848.391 54.3432 841.127 33.4778 841.127 33.4778" stroke="#5A5A5A" stroke-width="1.04092" stroke-miterlimit="10"/>
<path d="M836.71 78.1767C836.71 78.1767 835.939 76.9598 836.71 75.2087C837.481 73.4278 837.925 70.7863 836.71 67.1356C835.494 63.4849 826.896 38.2268 826.896 38.2268" stroke="#5A5A5A" stroke-width="1.04092" stroke-miterlimit="10"/>
<path d="M824.761 38.5233L841.78 32.8247C841.78 32.8247 844.329 27.4228 842.995 23.3269C841.661 19.231 832.618 18.9045 832.618 18.9045L821.025 22.4365C821.025 22.4365 816.786 23.0301 817.468 26.4434C817.972 28.9365 820.017 28.7288 821.144 28.5507C821.974 28.432 825.058 30.0347 823.012 32.795C821.796 34.1306 820.166 34.6649 821.025 36.9799C821.945 39.5028 824.761 38.5233 824.761 38.5233Z" stroke="#5A5A5A" stroke-width="1.04092" stroke-miterlimit="10"/>
<path d="M832.618 18.9046L855.122 8.96167" stroke="#5A5A5A" stroke-width="1.04092" stroke-miterlimit="10"/>
<path d="M841.78 32.8249C841.78 32.8249 843.885 32.2609 846.286 30.3911C848.718 28.5212 866.566 20.8933 866.566 20.8933" stroke="#5A5A5A" stroke-width="1.04092" stroke-miterlimit="10"/>
<path d="M835.553 17.5988C835.553 17.5988 826.57 14.8088 821.055 22.4367" stroke="#5A5A5A" stroke-width="1.04092" stroke-miterlimit="10"/>
<path d="M864.787 21.4275C870.437 21.4275 875.016 16.843 875.016 11.1878C875.016 5.5325 870.437 0.947998 864.787 0.947998C859.138 0.947998 854.558 5.5325 854.558 11.1878C854.558 16.843 859.138 21.4275 864.787 21.4275Z" stroke="#5A5A5A" stroke-width="1.04092" stroke-miterlimit="10"/>
<path d="M554.719 90.3159L582.352 82.3615C582.352 82.3615 584.516 81.0259 584.012 78.5624C583.508 76.0693 578.883 76.9003 578.883 76.9003L552.91 85.0031C552.91 85.0328 553.058 89.0099 554.719 90.3159Z" stroke="#5A5A5A" stroke-width="1.04092" stroke-miterlimit="10"/>
<path d="M496.666 27.7794C496.666 27.7794 521.808 27.7794 530.584 25.6127C539.361 23.446 562.665 15.5213 582.856 14.0076C603.046 12.5236 604.143 16.1743 605.685 18.1332C607.227 20.0921 608.769 24.5442 606.575 24.5442C604.381 24.5442 579.12 24.7519 552.88 33.389C537.997 38.7908 530.288 44.4301 523.113 44.4301C515.938 44.4301 497.763 46.2109 492.248 45.3205C486.734 44.4301 485.963 35.615 488.839 31.6378C491.626 27.6903 496.666 27.7794 496.666 27.7794Z" stroke="#5A5A5A" stroke-width="1.04092" stroke-miterlimit="10"/>
<path d="M551.961 48.051C555.312 51.583 564.859 50.6629 566.4 56.0648C568.179 62.2383 573.012 79.0374 573.012 79.0374" stroke="#5A5A5A" stroke-width="1.04092" stroke-miterlimit="10"/>
<path d="M559.018 82.7772L552.821 61.9712C552.495 60.873 551.487 60.131 550.36 60.131H546.684C544.994 60.131 543.393 59.3296 542.414 57.9346C541.347 56.4506 539.924 54.4027 538.649 52.4141" stroke="#5A5A5A" stroke-width="1.04092" stroke-miterlimit="10"/>
<path d="M574.583 27.8979C574.583 27.8979 566.4 39.7108 557.802 42.6788C551.013 45.0236 540.458 48.4072 536.307 49.7428C535.15 50.0989 533.935 50.0989 532.779 49.7428C528.657 48.4368 518.488 45.2907 516.234 44.6971" stroke="#5A5A5A" stroke-width="1.04092" stroke-miterlimit="10"/>
<path d="M580.513 26.8887C580.513 26.8887 567.942 42.3522 561.123 44.786C555.845 46.6559 542.918 50.8111 537.256 52.6216C535.477 53.1856 533.579 53.1856 531.8 52.6513L507.636 45.2015" stroke="#5A5A5A" stroke-width="1.04092" stroke-miterlimit="10"/>
<path d="M940.985 280.627C950.176 280.627 957.588 288.077 957.588 297.248C957.588 306.42 950.147 313.869 940.985 313.869C931.824 313.869 924.382 306.42 924.382 297.248C924.382 292.351 926.487 287.958 929.867 284.901" stroke="#5A5A5A" stroke-width="1.04092" stroke-miterlimit="10"/>
<path d="M954.742 299.237L1059.79 240.529" stroke="#5A5A5A" stroke-width="1.04092" stroke-miterlimit="10"/>
<path d="M1015.64 188.766L957.351 294.488" stroke="#5A5A5A" stroke-width="1.04092" stroke-miterlimit="10"/>
<path d="M949.109 287.157L1072.24 306.865" stroke="#5A5A5A" stroke-width="1.04092" stroke-miterlimit="10"/>
<path d="M950.947 306.864L1067.67 261.542" stroke="#5A5A5A" stroke-width="1.04092" stroke-miterlimit="10"/>
<path d="M951.659 284.693L928.859 165.497" stroke="#5A5A5A" stroke-width="1.04092" stroke-miterlimit="10"/>
<path d="M995.954 177.517L954.09 287.008" stroke="#5A5A5A" stroke-width="1.04092" stroke-miterlimit="10"/>
<path d="M941.993 284.219L1047.78 220.287" stroke="#5A5A5A" stroke-width="1.04092" stroke-miterlimit="10"/>
<path d="M943.001 282.586L1071.94 284.218" stroke="#5A5A5A" stroke-width="1.04092" stroke-miterlimit="10"/>
<path d="M953.586 291.609L1049.32 372.043" stroke="#5A5A5A" stroke-width="1.04092" stroke-miterlimit="10"/>
<path d="M1034.38 390.059L957.588 297.515" stroke="#5A5A5A" stroke-width="1.04092" stroke-miterlimit="10"/>
<path d="M946.559 312.919L1060.97 351.445" stroke="#5A5A5A" stroke-width="1.04092" stroke-miterlimit="10"/>
<path d="M952.993 308.705L1068.42 330.223" stroke="#5A5A5A" stroke-width="1.04092" stroke-miterlimit="10"/>
<path d="M954.208 307.31L973.451 424.933" stroke="#5A5A5A" stroke-width="1.04092" stroke-miterlimit="10"/>
<path d="M950.947 428.614L953.586 301.374" stroke="#5A5A5A" stroke-width="1.04092" stroke-miterlimit="10"/>
<path d="M935.945 313.097L995.954 416.979" stroke="#5A5A5A" stroke-width="1.04092" stroke-miterlimit="10"/>
<path d="M927.584 428.317L925.864 304.371" stroke="#5A5A5A" stroke-width="1.04092" stroke-miterlimit="10"/>
<path d="M863.572 403.801L948.071 309.833" stroke="#5A5A5A" stroke-width="1.04092" stroke-miterlimit="10"/>
<path d="M882.725 415.406L944.157 309.002" stroke="#5A5A5A" stroke-width="1.04092" stroke-miterlimit="10"/>
<path d="M904.665 423.924L928.266 301.374" stroke="#5A5A5A" stroke-width="1.04092" stroke-miterlimit="10"/>
<path d="M845.634 388.07L925.805 290.451" stroke="#5A5A5A" stroke-width="1.04092" stroke-miterlimit="10"/>
<path d="M831.818 370.856L929.452 291.609" stroke="#5A5A5A" stroke-width="1.04092" stroke-miterlimit="10"/>
<path d="M933.573 309.002L1016.23 405.315" stroke="#5A5A5A" stroke-width="1.04092" stroke-miterlimit="10"/>
<path d="M820.996 351.445L930.489 310.159" stroke="#5A5A5A" stroke-width="1.04092" stroke-miterlimit="10"/>
<path d="M813.524 330.223L933.988 312.326" stroke="#5A5A5A" stroke-width="1.04092" stroke-miterlimit="10"/>
<path d="M925.212 302.531L821.648 241.627" stroke="#5A5A5A" stroke-width="1.04092" stroke-miterlimit="10"/>
<path d="M813.761 263.412L931.408 304.698" stroke="#5A5A5A" stroke-width="1.04092" stroke-miterlimit="10"/>
<path d="M809.818 308.171L929.452 283.387" stroke="#5A5A5A" stroke-width="1.04092" stroke-miterlimit="10"/>
<path d="M809.996 284.218L928.859 285.88" stroke="#5A5A5A" stroke-width="1.04092" stroke-miterlimit="10"/>
<path d="M928.266 297.011L908.134 242.755" stroke="#5A5A5A" stroke-width="1.04092" stroke-miterlimit="10"/>
<path d="M924.619 294.755L864.787 189.805" stroke="#5A5A5A" stroke-width="1.04092" stroke-miterlimit="10"/>
<path d="M923.67 272.435L833.389 221.355" stroke="#5A5A5A" stroke-width="1.04092" stroke-miterlimit="10"/>
<path d="M847.947 204.081L918.6 262.967" stroke="#5A5A5A" stroke-width="1.04092" stroke-miterlimit="10"/>
<path d="M939.651 278.282L1032.81 202.894" stroke="#5A5A5A" stroke-width="1.04092" stroke-miterlimit="10"/>
<path d="M937.309 272.435L974.221 169.741" stroke="#5A5A5A" stroke-width="1.04092" stroke-miterlimit="10"/>
<path d="M932.535 260.444L950.947 165.882" stroke="#5A5A5A" stroke-width="1.04092" stroke-miterlimit="10"/>
<path d="M946.411 281.547L906.148 170.186" stroke="#5A5A5A" stroke-width="1.04092" stroke-miterlimit="10"/>
<path d="M451.096 321.913L368.553 400.922" stroke="#5A5A5A" stroke-width="1.04092" stroke-miterlimit="10"/>
<path d="M434.552 316.63L320.729 323.248" stroke="#5A5A5A" stroke-width="1.04092" stroke-miterlimit="10"/>
<path d="M425.301 302.709L334.131 234.325" stroke="#5A5A5A" stroke-width="1.04092" stroke-miterlimit="10"/>
<path d="M427.614 285.999L400.989 174.846" stroke="#5A5A5A" stroke-width="1.04092" stroke-miterlimit="10"/>
<path d="M440.333 274.572L491.092 172.145" stroke="#5A5A5A" stroke-width="1.04092" stroke-miterlimit="10"/>
<path d="M470.605 283.743L543.897 305.024" stroke="#5A5A5A" stroke-width="1.04092" stroke-miterlimit="10"/>
<path d="M466.306 315.62L455.395 428.881" stroke="#5A5A5A" stroke-width="1.04092" stroke-miterlimit="10"/>
<path d="M452.43 325.355L387.38 413.269" stroke="#5A5A5A" stroke-width="1.04092" stroke-miterlimit="10"/>
<path d="M454.565 325.474L520.148 408.609" stroke="#5A5A5A" stroke-width="1.04092" stroke-miterlimit="10"/>
<path d="M471.583 315.145L477.958 425.972" stroke="#5A5A5A" stroke-width="1.04092" stroke-miterlimit="10"/>
<path d="M445.047 325.355L500.194 418.968" stroke="#5A5A5A" stroke-width="1.04092" stroke-miterlimit="10"/>
<path d="M434.552 321.022L432.209 427.812" stroke="#5A5A5A" stroke-width="1.04092" stroke-miterlimit="10"/>
<path d="M427.614 315.145L409.824 422.826" stroke="#5A5A5A" stroke-width="1.04092" stroke-miterlimit="10"/>
<path d="M421.98 302.056L351.327 384.687" stroke="#5A5A5A" stroke-width="1.04092" stroke-miterlimit="10"/>
<path d="M432.209 319.33L327.222 345.36" stroke="#5A5A5A" stroke-width="1.04092" stroke-miterlimit="10"/>
<path d="M421.565 297.248L337.689 366.314" stroke="#5A5A5A" stroke-width="1.04092" stroke-miterlimit="10"/>
<path d="M421.98 300.216L325.088 254.954" stroke="#5A5A5A" stroke-width="1.04092" stroke-miterlimit="10"/>
<path d="M426.487 281.31L318.209 300.216" stroke="#5A5A5A" stroke-width="1.04092" stroke-miterlimit="10"/>
<path d="M428.8 278.401L319.632 277.6" stroke="#5A5A5A" stroke-width="1.04092" stroke-miterlimit="10"/>
<path d="M425.301 281.517L381.124 184.818" stroke="#5A5A5A" stroke-width="1.04092" stroke-miterlimit="10"/>
<path d="M362.831 198.323L445.047 269.022L346.909 215.063" stroke="#5A5A5A" stroke-width="1.04092" stroke-miterlimit="10"/>
<path d="M440.333 270.625L468.944 166.891" stroke="#5A5A5A" stroke-width="1.04092" stroke-miterlimit="10"/>
<path d="M460.85 264.896L423.937 168.049" stroke="#5A5A5A" stroke-width="1.04092" stroke-miterlimit="10"/>
<path d="M462.926 262.581L446.47 165.497" stroke="#5A5A5A" stroke-width="1.04092" stroke-miterlimit="10"/>
<path d="M476.446 288.077L524.358 206.841" stroke="#5A5A5A" stroke-width="1.04092" stroke-miterlimit="10"/>
<path d="M469.715 268.518L561.419 229.132" stroke="#5A5A5A" stroke-width="1.04092" stroke-miterlimit="10"/>
<path d="M481.871 298.97L572.182 248.81" stroke="#5A5A5A" stroke-width="1.04092" stroke-miterlimit="10"/>
<path d="M495.955 300.602L579.209 270.625" stroke="#5A5A5A" stroke-width="1.04092" stroke-miterlimit="10"/>
<path d="M471.583 279.351L581.284 292.945" stroke="#5A5A5A" stroke-width="1.04092" stroke-miterlimit="10"/>
<path d="M485.666 250.531L548.285 209.898" stroke="#5A5A5A" stroke-width="1.04092" stroke-miterlimit="10"/>
<path d="M475.467 285.613L489.728 245.93" stroke="#5A5A5A" stroke-width="1.04092" stroke-miterlimit="10"/>
<path d="M497.822 223.344L512.884 181.613" stroke="#5A5A5A" stroke-width="1.04092" stroke-miterlimit="10"/>
<path d="M481.871 310.901L538.797 394.274" stroke="#5A5A5A" stroke-width="1.04092" stroke-miterlimit="10"/>
<path d="M463.459 321.913L565.57 357.945" stroke="#5A5A5A" stroke-width="1.04092" stroke-miterlimit="10"/>
<path d="M469.715 316.63L575.028 337.732" stroke="#5A5A5A" stroke-width="1.04092" stroke-miterlimit="10"/>
<path d="M492.93 312.029L554.066 377.623" stroke="#5A5A5A" stroke-width="1.04092" stroke-miterlimit="10"/>
<g clip-path="url(#clip1_10_531)">
<path d="M741.751 231.02L744.255 232.995L734.934 233.352L730.433 239.114L739.848 246.537L741.952 243.842C743.124 242.329 743.183 239.877 741.68 238.692L738.315 236.038L748.073 236.025L752.6 230.284L743.21 222.881L740.911 225.797C739.615 227.441 740.081 229.703 741.751 231.02Z" fill="#DBDBDB"/>
<path d="M749.415 214.984C748.502 216.222 747.205 217.761 746.286 218.953C744.992 220.62 745.174 222.846 746.53 224.165L750.255 227.102C751.077 227.75 751.951 228.147 753.041 228.007C754.131 227.866 754.985 227.311 755.704 226.399L758.904 222.34L755.897 219.365L752.656 223.475L749.415 214.984Z" fill="#DBDBDB"/>
<path d="M753.263 210.103L750.063 214.162L753.071 217.137L756.311 213.027L759.552 221.518C760.466 220.28 761.763 218.741 762.681 217.549C763.965 215.895 763.806 213.666 762.437 212.337L758.712 209.4C757.89 208.752 757.016 208.354 755.927 208.495C754.837 208.636 753.982 209.191 753.263 210.103Z" fill="#DBDBDB"/>
<path d="M729.387 245.83C732.324 242.105 729.964 239.682 729.964 239.682L717.609 255.353L721.27 258.239L717.543 262.966L716.4 262.065C714.563 260.616 713.153 261.004 711.746 262.79L709.366 265.808L712.924 268.614L713.039 268.705L709.444 273.265C709.444 273.265 711.834 274.461 714.274 271.366L715.095 270.325L718.794 273.242L723.323 267.523L719.611 264.596L725.92 256.594L724.792 261.037L726.989 262.768C729.414 259.744 733.298 254.871 735.699 251.827C738.066 248.507 736.326 245.614 736.326 245.614L728.994 254.914L727.928 254.074L729.566 251.97C731.996 248.887 730.286 246.83 730.286 246.83L725.86 252.443L724.833 251.633L729.4 245.84L729.387 245.83Z" fill="#DBDBDB"/>
<path d="M772.948 192.691L769.261 189.785L764.805 195.437L768.479 198.333L764.6 203.253L763.547 202.422C761.248 200.61 759.897 201.69 758.489 203.475L756.329 206.188L765.757 213.621L770.355 207.79L766.681 204.893L773.335 196.454L771.999 201.108L774.246 202.88L776.495 200.029L776.859 199.566L778.702 197.228L775.003 194.312L775.479 193.708C777.909 190.625 776.199 188.568 776.199 188.568L772.948 192.691Z" fill="#DBDBDB"/>
<path d="M793.76 167.879L793.81 167.815L792.026 160.409L789.474 163.646C788.289 165.149 787.59 167.514 787.922 168.942L789.043 173.783L784.074 173.823C782.608 173.834 780.471 175.065 779.286 176.568L776.734 179.805L784.413 179.735L784.402 179.748L786.147 187.31L788.699 184.073C789.884 182.57 790.583 180.204 790.251 178.776L789.122 173.867L789.143 173.841L794.18 173.792C795.646 173.782 797.783 172.551 798.968 171.048L801.52 167.811L793.76 167.879Z" fill="#DBDBDB"/>
<path d="M802.666 170.902L807.162 165.198L796.042 147.891C793.561 151.038 793.403 156.496 795.699 160.056L802.666 170.902Z" fill="#DBDBDB"/>
</g>
</g>
<path d="M633.679 288.029C633.679 289.562 634.921 290.805 636.454 290.805C637.987 290.805 639.23 289.562 639.23 288.029C639.23 286.496 637.987 285.254 636.454 285.254C634.921 285.254 633.679 286.496 633.679 288.029ZM229.454 224.696L229.534 224.181L229.494 224.175H229.454V224.696ZM0.451111 225.216H229.454V224.175H0.451111V225.216ZM229.374 225.21L636.374 288.544L636.534 287.515L229.534 224.181L229.374 225.21Z" fill="#B7B7B7"/>
<path d="M737.771 230.843C737.771 232.376 739.014 233.619 740.547 233.619C742.08 233.619 743.322 232.376 743.322 230.843C743.322 229.31 742.08 228.067 740.547 228.067C739.014 228.067 737.771 229.31 737.771 230.843ZM1117.36 45.5696V45.0491H1117.24L1117.13 45.1025L1117.36 45.5696ZM1356.77 45.0491H1117.36V46.09H1356.77V45.0491ZM1117.13 45.1025L740.317 230.376L740.776 231.31L1117.59 46.0366L1117.13 45.1025Z" fill="#B7B7B7"/>
<path d="M1057.33 223.557C1057.33 225.09 1058.58 226.333 1060.11 226.333C1061.64 226.333 1062.89 225.09 1062.89 223.557C1062.89 222.024 1061.64 220.781 1060.11 220.781C1058.58 220.781 1057.33 222.024 1057.33 223.557ZM1356.77 223.036H1117.36V224.077H1356.77V223.036ZM1117.36 223.036H1060.11V224.077H1117.36V223.036Z" fill="#B7B7B7"/>
<path d="M574.346 116.342C574.346 117.875 575.589 119.118 577.122 119.118C578.655 119.118 579.898 117.875 579.898 116.342C579.898 114.809 578.655 113.566 577.122 113.566C575.589 113.566 574.346 114.809 574.346 116.342ZM229.454 48.6819L229.553 48.171L229.504 48.1614H229.454V48.6819ZM0.451111 49.2023H229.454V48.1614H0.451111V49.2023ZM229.355 49.1928L577.022 116.853L577.221 115.831L229.553 48.171L229.355 49.1928Z" fill="#B7B7B7"/>
<path d="M373.448 423.688C373.448 425.222 374.691 426.464 376.224 426.464C377.757 426.464 379 425.222 379 423.688C379 422.155 377.757 420.913 376.224 420.913C374.691 420.913 373.448 422.155 373.448 423.688ZM0.451111 424.209H229.454V423.168H0.451111V424.209ZM229.454 424.209H376.224V423.168H229.454V424.209Z" fill="#B7B7B7"/>
<path d="M800.226 343.387C800.226 344.92 801.469 346.163 803.002 346.163C804.535 346.163 805.778 344.92 805.778 343.387C805.778 341.854 804.535 340.611 803.002 340.611C801.469 340.611 800.226 341.854 800.226 343.387ZM1117.36 416.127L1117.24 416.635L1117.3 416.648H1117.36V416.127ZM1356.77 415.607H1117.36V416.648H1356.77V415.607ZM1117.48 415.62L803.119 342.88L802.885 343.894L1117.24 416.635L1117.48 415.62Z" fill="#B7B7B7"/>
<defs>
<clipPath id="clip0_10_531">
<rect width="807.755" height="454.883" fill="white" transform="translate(291.496 0.799561)"/>
</clipPath>
<clipPath id="clip1_10_531">
<rect width="152.07" height="19.4483" fill="white" transform="translate(701.892 267.31) rotate(-51.7476)"/>
</clipPath>
</defs>
</svg>
