<svg width="326" height="319" viewBox="0 0 326 319" fill="none" xmlns="http://www.w3.org/2000/svg">
<g clip-path="url(#clip0_709_826)">
<path d="M418.762 245.316C403.329 287.884 362.591 318.283 314.737 318.283C253.65 318.283 204.116 268.697 204.116 207.545C204.116 146.392 253.65 96.8062 314.737 96.8062C339.67 96.8062 362.674 105.05 381.155 118.983" stroke="#5A5A5A" stroke-width="0.72824" stroke-miterlimit="10"/>
<path d="M405.404 223.72C397.77 266.911 360.081 299.72 314.737 299.72C263.897 299.72 222.681 258.439 222.681 207.545C222.681 156.65 263.897 115.37 314.758 115.37C335.086 115.37 353.879 121.973 369.125 133.145" stroke="#5A5A5A" stroke-width="0.72824" stroke-miterlimit="10"/>
<path d="M332.286 216.598C329.008 222.952 322.391 227.292 314.758 227.292C303.868 227.292 295.032 218.446 295.032 207.545C295.032 196.643 303.868 187.797 314.758 187.797C316.376 187.797 317.952 187.984 319.446 188.358" stroke="#5A5A5A" stroke-width="0.72824" stroke-miterlimit="10"/>
<path d="M325.523 191.016C330.896 194.546 334.464 200.63 334.464 207.545C334.464 207.815 334.464 208.064 334.443 208.334" stroke="#5A5A5A" stroke-width="0.72824" stroke-miterlimit="10"/>
<path d="M433.199 192.47L404.947 103.679C404.947 103.679 404.595 101.354 402.749 103.679C400.902 105.984 323.366 193.466 323.366 193.466C323.366 193.466 318.118 200.111 322.744 204.347C326.312 206.527 328.676 207.669 339.483 209.061C350.29 210.452 412.643 215.788 412.643 215.788" stroke="#5A5A5A" stroke-width="0.72824" stroke-miterlimit="10"/>
<path d="M381.155 118.983L317.932 190.061C317.932 190.061 309.261 199.26 309.261 205.198C309.261 215.788 325.918 215.851 335.729 216.93C345.665 218.031 411.585 224.302 411.585 224.302" stroke="#5A5A5A" stroke-width="0.72824" stroke-miterlimit="10"/>
<path d="M315.671 224.8L257.923 280.076" stroke="#5A5A5A" stroke-width="0.72824" stroke-miterlimit="10"/>
<path d="M304.096 221.104L224.465 225.735" stroke="#5A5A5A" stroke-width="0.72824" stroke-miterlimit="10"/>
<path d="M297.624 211.365L233.841 163.523" stroke="#5A5A5A" stroke-width="0.72824" stroke-miterlimit="10"/>
<path d="M299.242 199.675L280.615 121.911" stroke="#5A5A5A" stroke-width="0.72824" stroke-miterlimit="10"/>
<path d="M308.141 191.68L343.653 120.021" stroke="#5A5A5A" stroke-width="0.72824" stroke-miterlimit="10"/>
<path d="M326.312 220.398L318.678 299.636" stroke="#5A5A5A" stroke-width="0.72824" stroke-miterlimit="10"/>
<path d="M316.604 227.209L271.094 288.714" stroke="#5A5A5A" stroke-width="0.72824" stroke-miterlimit="10"/>
<path d="M318.097 227.292L363.98 285.454" stroke="#5A5A5A" stroke-width="0.72824" stroke-miterlimit="10"/>
<path d="M311.439 227.209L350.021 292.701" stroke="#5A5A5A" stroke-width="0.72824" stroke-miterlimit="10"/>
<path d="M304.096 224.177L302.457 298.889" stroke="#5A5A5A" stroke-width="0.72824" stroke-miterlimit="10"/>
<path d="M299.242 220.066L286.797 295.4" stroke="#5A5A5A" stroke-width="0.72824" stroke-miterlimit="10"/>
<path d="M295.301 210.909L245.871 268.718" stroke="#5A5A5A" stroke-width="0.72824" stroke-miterlimit="10"/>
<path d="M302.457 222.994L229.008 241.204" stroke="#5A5A5A" stroke-width="0.72824" stroke-miterlimit="10"/>
<path d="M295.011 207.545L236.33 255.864" stroke="#5A5A5A" stroke-width="0.72824" stroke-miterlimit="10"/>
<path d="M295.301 209.621L227.514 177.955" stroke="#5A5A5A" stroke-width="0.72824" stroke-miterlimit="10"/>
<path d="M298.454 196.394L222.702 209.621" stroke="#5A5A5A" stroke-width="0.72824" stroke-miterlimit="10"/>
<path d="M300.072 194.359L223.697 193.799" stroke="#5A5A5A" stroke-width="0.72824" stroke-miterlimit="10"/>
<path d="M297.624 196.539L266.718 128.888" stroke="#5A5A5A" stroke-width="0.72824" stroke-miterlimit="10"/>
<path d="M253.92 138.336L311.439 187.797L242.781 150.047" stroke="#5A5A5A" stroke-width="0.72824" stroke-miterlimit="10"/>
<path d="M308.141 188.919L328.158 116.346" stroke="#5A5A5A" stroke-width="0.72824" stroke-miterlimit="10"/>
<path d="M322.495 184.911L296.67 117.156" stroke="#5A5A5A" stroke-width="0.72824" stroke-miterlimit="10"/>
<path d="M323.947 183.291L312.435 115.37" stroke="#5A5A5A" stroke-width="0.72824" stroke-miterlimit="10"/>
<path d="M324.32 224.8L395.758 250.009" stroke="#5A5A5A" stroke-width="0.72824" stroke-miterlimit="10"/>
</g>
<path d="M443.408 201.095C443.408 202.168 444.277 203.037 445.35 203.037C446.422 203.037 447.292 202.168 447.292 201.095C447.292 200.023 446.422 199.153 445.35 199.153C444.277 199.153 443.408 200.023 443.408 201.095ZM160.608 156.786L160.664 156.426L160.636 156.422H160.608V156.786ZM0.394745 157.15H160.608V156.422H0.394745V157.15ZM160.552 157.146L445.294 201.455L445.406 200.735L160.664 156.426L160.552 157.146Z" fill="#B7B7B7"/>
<path d="M401.898 80.9808C401.898 82.0533 402.767 82.9227 403.84 82.9227C404.912 82.9227 405.782 82.0533 405.782 80.9808C405.782 79.9082 404.912 79.0388 403.84 79.0388C402.767 79.0388 401.898 79.9082 401.898 80.9808ZM160.608 33.6451L160.677 33.2877L160.643 33.281H160.608V33.6451ZM0.394745 34.0093H160.608V33.281H0.394745V34.0093ZM160.538 34.0026L403.77 81.3382L403.909 80.6233L160.677 33.2877L160.538 34.0026Z" fill="#B7B7B7"/>
<path d="M261.348 296.004C261.348 297.076 262.217 297.946 263.289 297.946C264.362 297.946 265.231 297.076 265.231 296.004C265.231 294.931 264.362 294.062 263.289 294.062C262.217 294.062 261.348 294.931 261.348 296.004ZM0.394745 296.368H160.608V295.64H0.394745V296.368ZM160.608 296.368H263.289V295.64H160.608V296.368Z" fill="#B7B7B7"/>
<defs>
<clipPath id="clip0_709_826">
<rect width="565.114" height="318.241" fill="white" transform="translate(204.013 0.146118)"/>
</clipPath>
</defs>
</svg>
