<svg width="23" height="23" viewBox="0 0 23 23" fill="none" xmlns="http://www.w3.org/2000/svg">
<path fill-rule="evenodd" clip-rule="evenodd" d="M21.8336 22.4334C22.4056 21.8614 22.4056 20.934 21.8336 20.3619L2.50045 1.02875C1.92845 0.45674 1.00101 0.456741 0.429004 1.02875C-0.143001 1.60075 -0.143002 2.52815 0.429004 3.10016L19.7622 22.4334C20.3342 23.0054 21.2616 23.0054 21.8336 22.4334Z" fill="#3DFFFF"/>
<path fill-rule="evenodd" clip-rule="evenodd" d="M0.429048 22.4334C1.00105 23.0054 1.92845 23.0054 2.50045 22.4334L21.8336 3.10015C22.4056 2.52815 22.4056 1.60074 21.8336 1.02874C21.2616 0.45673 20.3342 0.45673 19.7622 1.02874L0.429048 20.3619C-0.142958 20.9339 -0.142958 21.8613 0.429048 22.4334Z" fill="#3DFFFF"/>
</svg>
