<svg width="31" height="24" viewBox="0 0 31 24" fill="none" xmlns="http://www.w3.org/2000/svg">
<path fill-rule="evenodd" clip-rule="evenodd" d="M31 11.75C31 10.9216 30.3284 10.25 29.5 10.25H1.5C0.671572 10.25 0 10.9216 0 11.75C0 12.5784 0.671572 13.25 1.5 13.25H29.5C30.3284 13.25 31 12.5784 31 11.75Z" fill="white"/>
<path fill-rule="evenodd" clip-rule="evenodd" d="M31 1.75C31 0.921573 30.3284 0.25 29.5 0.25H1.5C0.671572 0.25 0 0.921573 0 1.75C0 2.57843 0.671572 3.25 1.5 3.25H29.5C30.3284 3.25 31 2.57843 31 1.75Z" fill="white"/>
<path fill-rule="evenodd" clip-rule="evenodd" d="M31 21.75C31 20.9216 30.3284 20.25 29.5 20.25H1.5C0.671572 20.25 0 20.9216 0 21.75C0 22.5784 0.671572 23.25 1.5 23.25H29.5C30.3284 23.25 31 22.5784 31 21.75Z" fill="white"/>
</svg>
