<svg width="811" height="570" viewBox="0 0 811 570" fill="none" xmlns="http://www.w3.org/2000/svg">
<g opacity="0.5" clip-path="url(#clip0_67_753)">
<path d="M297.956 206.868C274.045 197.988 248.186 193.174 221.209 193.174C99.167 193.174 0.2076 292.271 0.2076 414.483C0.2076 536.695 99.167 635.793 221.209 635.793C343.25 635.793 442.21 536.695 442.21 414.483C442.21 329.993 394.927 256.541 325.39 219.276" stroke="#5A5A5A" stroke-width="1.04092" stroke-miterlimit="10"/>
<path d="M282.457 240.73C263.312 233.966 242.675 230.273 221.208 230.273C119.638 230.273 37.2549 312.73 37.2549 414.483C37.2549 516.236 119.597 598.693 221.208 598.693C322.82 598.693 405.162 516.236 405.162 414.483C405.162 344.891 366.581 284.262 309.684 252.972" stroke="#5A5A5A" stroke-width="1.04092" stroke-miterlimit="10"/>
<path d="M766.024 244.673C722.554 281.108 693.255 333.977 687.702 393.776" stroke="#5A5A5A" stroke-width="1.04092" stroke-miterlimit="10"/>
<path d="M699.969 489.968C730.8 575.039 812.189 635.793 907.792 635.793C1029.83 635.793 1128.79 536.695 1128.79 414.483C1128.79 292.271 1029.83 193.174 907.792 193.174C857.981 193.174 812.023 209.649 775.1 237.494" stroke="#5A5A5A" stroke-width="1.04092" stroke-miterlimit="10"/>
<path d="M790.765 272.352C749.904 306.131 723.839 357.257 723.839 414.483C723.839 419.67 724.046 424.816 724.46 429.92" stroke="#5A5A5A" stroke-width="1.04092" stroke-miterlimit="10"/>
<path d="M726.656 446.81C741.906 533.126 817.203 598.693 907.792 598.693C1009.36 598.693 1091.7 516.195 1091.7 414.483C1091.7 312.771 1009.36 230.273 907.75 230.273C867.139 230.273 829.594 243.469 799.135 265.795" stroke="#5A5A5A" stroke-width="1.04092" stroke-miterlimit="10"/>
<path d="M563.837 555.743L571.214 572.3C571.586 573.172 572.457 573.753 573.41 573.753L629.189 573.877C630.97 573.877 632.172 571.968 631.385 570.391L623.221 553.917C622.807 553.087 621.978 552.589 621.066 552.589L566.033 552.381C564.293 552.34 563.091 554.166 563.837 555.743Z" stroke="#5A5A5A" stroke-width="1.04092" stroke-miterlimit="10"/>
<path d="M588.867 552.423C598.44 525.947 628.484 440.295 628.484 440.295C628.484 440.295 633.291 426.725 647.796 432.327C662.3 437.971 656.249 454.487 656.249 454.487L612.986 552.547" stroke="#5A5A5A" stroke-width="1.04092" stroke-miterlimit="10"/>
<path d="M629.272 514.286C662.631 522.751 697.731 504.866 709.998 471.833C723.176 436.435 705.149 397.054 669.801 383.857C634.452 370.661 595.125 388.713 581.947 424.11C570.965 453.699 581.698 486.026 606.148 503.579" stroke="#5A5A5A" stroke-width="1.04092" stroke-miterlimit="10"/>
<path d="M636.648 498.724C659.73 502.376 683.061 489.636 691.888 466.937C702.041 440.751 689.112 411.288 662.963 401.121C636.814 390.954 607.391 403.901 597.238 430.086C589.075 451.085 595.788 474.199 612.281 487.769" stroke="#5A5A5A" stroke-width="1.04092" stroke-miterlimit="10"/>
<path d="M212.382 409.379C215.242 405.852 217.562 401.909 219.22 397.718L273.88 260.069C273.88 260.069 297.625 206.204 304.711 193.174C308.399 182.301 311.508 173.836 311.508 173.836L341.552 184.791L299.49 274.925C299.49 274.925 259.127 354.56 250.176 370.91C241.225 387.26 236.252 398.88 234.429 401.951C227.964 412.948 233.351 423.82 221.955 423.198C210.517 422.617 210.145 412.118 212.382 409.379Z" stroke="#5A5A5A" stroke-width="1.04092" stroke-miterlimit="10"/>
<path d="M339.687 184.086L344.162 179.645C344.162 179.645 346.773 176.74 352.657 184.086C358.542 191.431 583.521 475.527 583.521 475.527" stroke="#5A5A5A" stroke-width="1.04092" stroke-miterlimit="10"/>
<path d="M313.91 174.707C313.91 174.707 312.087 171.636 313.04 169.644C313.827 167.902 331.771 114.659 336.537 100.592C337.2 98.6412 337.821 98.6827 339.769 99.3467L365.918 107.937C367.7 108.518 366.705 109.638 366.374 111.506C366.374 111.506 364.84 116.734 371.927 116.734C379.013 116.734 472.792 121.05 536.611 124.287C592.431 127.109 622.185 128.105 630.929 128.354C632.131 128.395 644.273 129.018 645.516 129.184C649.908 129.765 664.122 130.844 670.711 131.01C683.89 131.3 719.528 132.545 723.133 132.628C723.382 132.628 725.123 132.379 725.371 132.338C726.614 132.13 729.225 131.051 730.386 127.773C731.753 123.831 733.452 117.274 733.452 117.274" stroke="#5A5A5A" stroke-width="1.04092" stroke-miterlimit="10"/>
<path d="M651.484 379.542C651.484 379.542 710.453 198.568 711.613 193.174C712.774 187.779 705.356 176.367 690.106 164.789C663.999 145.119 638.761 145.575 638.761 145.575C638.761 145.575 603.371 143.5 555.301 142.795C507.23 142.09 451.037 142.795 451.037 142.795C451.037 142.795 435.082 145.119 419.376 148.812C403.67 152.506 395.341 153.668 400.645 161.096C405.95 168.524 593.757 403.901 593.757 403.901" stroke="#5A5A5A" stroke-width="1.04092" stroke-miterlimit="10"/>
<path d="M671.126 384.356L727.568 206.91C727.568 206.91 728.272 202.262 731.96 206.91C735.648 211.516 890.552 386.348 890.552 386.348C890.552 386.348 901.037 399.627 891.796 408.093C884.668 412.45 879.944 414.732 858.353 417.513C836.763 420.293 712.193 430.958 712.193 430.958" stroke="#5A5A5A" stroke-width="1.04092" stroke-miterlimit="10"/>
<path d="M775.1 237.494L901.41 379.542C901.41 379.542 918.732 397.925 918.732 409.794C918.732 430.958 885.456 431.082 865.855 433.24C846.005 435.44 714.307 447.972 714.307 447.972" stroke="#5A5A5A" stroke-width="1.04092" stroke-miterlimit="10"/>
<path d="M752.805 122.793C752.805 122.793 738.425 172.425 735.648 181.222C732.872 190.02 735.648 193.174 735.648 193.174L775.1 237.494" stroke="#5A5A5A" stroke-width="1.04092" stroke-miterlimit="10"/>
<path d="M337.366 98.4751C337.366 98.4751 338.153 95.9853 341.219 94.3253C344.286 92.6239 345.985 90.3 348.306 82.5814C350.626 74.8627 360.779 45.6896 360.779 45.6896" stroke="#5A5A5A" stroke-width="1.04092" stroke-miterlimit="10"/>
<path d="M366.954 108.186C366.954 108.186 368.032 106.484 366.954 104.036C365.877 101.546 365.255 97.8527 366.954 92.7484C368.653 87.6442 380.671 52.3293 380.671 52.3293" stroke="#5A5A5A" stroke-width="1.04092" stroke-miterlimit="10"/>
<path d="M383.655 52.744L359.868 44.7763C359.868 44.7763 356.304 37.2237 358.169 31.4969C360.034 25.7702 372.673 25.3137 372.673 25.3137L388.877 30.252C388.877 30.252 394.802 31.082 393.849 35.8542C393.145 39.3401 390.285 39.0496 388.711 38.8006C387.55 38.6346 383.241 40.8755 386.1 44.7348C387.799 46.6023 390.078 47.3492 388.877 50.5861C387.592 54.1134 383.655 52.744 383.655 52.744Z" stroke="#5A5A5A" stroke-width="1.04092" stroke-miterlimit="10"/>
<path d="M372.673 25.3139L341.22 11.4121" stroke="#5A5A5A" stroke-width="1.04092" stroke-miterlimit="10"/>
<path d="M359.868 44.7765C359.868 44.7765 356.926 43.988 353.569 41.3737C350.171 38.7593 325.224 28.0943 325.224 28.0943" stroke="#5A5A5A" stroke-width="1.04092" stroke-miterlimit="10"/>
<path d="M368.571 23.4881C368.571 23.4881 381.127 19.5873 388.835 30.2523" stroke="#5A5A5A" stroke-width="1.04092" stroke-miterlimit="10"/>
<path d="M327.71 28.8412C319.814 28.8412 313.413 22.4313 313.413 14.5244C313.413 6.61737 319.814 0.207504 327.71 0.207504C335.606 0.207504 342.007 6.61737 342.007 14.5244C342.007 22.4313 335.606 28.8412 327.71 28.8412Z" stroke="#5A5A5A" stroke-width="1.04092" stroke-miterlimit="10"/>
<path d="M761.093 125.158L722.471 114.037C722.471 114.037 719.446 112.169 720.15 108.725C720.855 105.239 727.319 106.401 727.319 106.401L763.621 117.73C763.621 117.772 763.414 123.332 761.093 125.158Z" stroke="#5A5A5A" stroke-width="1.04092" stroke-miterlimit="10"/>
<path d="M842.234 37.722C842.234 37.722 807.092 37.722 794.826 34.6926C782.56 31.6632 749.987 20.5832 721.767 18.4668C693.546 16.3919 692.012 21.4962 689.858 24.2351C687.703 26.9739 685.548 33.1987 688.614 33.1987C691.681 33.1987 726.988 33.4891 763.663 45.5651C784.466 53.1178 795.24 61.0024 805.269 61.0024C815.297 61.0024 840.7 63.4923 848.408 62.2473C856.116 61.0024 857.194 48.6775 853.174 43.1167C849.278 37.5975 842.234 37.722 842.234 37.722Z" stroke="#5A5A5A" stroke-width="1.04092" stroke-miterlimit="10"/>
<path d="M764.947 66.0651C760.265 71.0033 746.921 69.7169 744.766 77.2696C742.279 85.9012 735.525 109.389 735.525 109.389" stroke="#5A5A5A" stroke-width="1.04092" stroke-miterlimit="10"/>
<path d="M755.084 114.618L763.745 85.5277C764.201 83.9922 765.61 82.9548 767.185 82.9548H772.323C774.685 82.9548 776.923 81.8343 778.291 79.8839C779.783 77.809 781.772 74.9456 783.554 72.1653" stroke="#5A5A5A" stroke-width="1.04092" stroke-miterlimit="10"/>
<path d="M733.328 37.8878C733.328 37.8878 744.766 54.404 756.783 58.5538C766.273 61.8322 781.026 66.563 786.828 68.4304C788.444 68.9284 790.143 68.9284 791.759 68.4304C797.519 66.6045 811.733 62.2057 814.883 61.3757" stroke="#5A5A5A" stroke-width="1.04092" stroke-miterlimit="10"/>
<path d="M725.04 36.4767C725.04 36.4767 742.611 58.0973 752.142 61.5001C759.518 64.1145 777.586 69.9242 785.501 72.4556C787.988 73.2441 790.64 73.2441 793.127 72.4971L826.9 62.0811" stroke="#5A5A5A" stroke-width="1.04092" stroke-miterlimit="10"/>
<path d="M221.208 391.244C208.362 391.244 198.002 401.66 198.002 414.483C198.002 427.306 208.403 437.722 221.208 437.722C234.014 437.722 244.415 427.306 244.415 414.483C244.415 407.636 241.473 401.494 236.749 397.22" stroke="#5A5A5A" stroke-width="1.04092" stroke-miterlimit="10"/>
<path d="M201.98 417.263L55.1574 335.18" stroke="#5A5A5A" stroke-width="1.04092" stroke-miterlimit="10"/>
<path d="M116.862 262.808L198.334 410.624" stroke="#5A5A5A" stroke-width="1.04092" stroke-miterlimit="10"/>
<path d="M209.854 400.374L37.7528 427.928" stroke="#5A5A5A" stroke-width="1.04092" stroke-miterlimit="10"/>
<path d="M207.285 427.928L44.1346 364.56" stroke="#5A5A5A" stroke-width="1.04092" stroke-miterlimit="10"/>
<path d="M206.291 396.929L238.158 230.273" stroke="#5A5A5A" stroke-width="1.04092" stroke-miterlimit="10"/>
<path d="M144.379 247.08L202.893 400.166" stroke="#5A5A5A" stroke-width="1.04092" stroke-miterlimit="10"/>
<path d="M219.8 396.266L71.9407 306.879" stroke="#5A5A5A" stroke-width="1.04092" stroke-miterlimit="10"/>
<path d="M218.391 393.983L38.1666 396.265" stroke="#5A5A5A" stroke-width="1.04092" stroke-miterlimit="10"/>
<path d="M203.597 406.599L69.7859 519.058" stroke="#5A5A5A" stroke-width="1.04092" stroke-miterlimit="10"/>
<path d="M90.6715 544.247L198.002 414.856" stroke="#5A5A5A" stroke-width="1.04092" stroke-miterlimit="10"/>
<path d="M213.418 436.394L53.4997 490.258" stroke="#5A5A5A" stroke-width="1.04092" stroke-miterlimit="10"/>
<path d="M204.426 430.501L43.0987 460.588" stroke="#5A5A5A" stroke-width="1.04092" stroke-miterlimit="10"/>
<path d="M202.727 428.551L175.832 593.008" stroke="#5A5A5A" stroke-width="1.04092" stroke-miterlimit="10"/>
<path d="M207.285 598.154L203.597 420.251" stroke="#5A5A5A" stroke-width="1.04092" stroke-miterlimit="10"/>
<path d="M228.254 436.643L144.379 581.886" stroke="#5A5A5A" stroke-width="1.04092" stroke-miterlimit="10"/>
<path d="M239.94 597.739L242.344 424.442" stroke="#5A5A5A" stroke-width="1.04092" stroke-miterlimit="10"/>
<path d="M329.41 563.461L211.305 432.078" stroke="#5A5A5A" stroke-width="1.04092" stroke-miterlimit="10"/>
<path d="M302.64 579.687L216.775 430.916" stroke="#5A5A5A" stroke-width="1.04092" stroke-miterlimit="10"/>
<path d="M271.974 591.597L238.987 420.251" stroke="#5A5A5A" stroke-width="1.04092" stroke-miterlimit="10"/>
<path d="M354.481 541.467L242.427 404.98" stroke="#5A5A5A" stroke-width="1.04092" stroke-miterlimit="10"/>
<path d="M373.792 517.398L237.329 406.599" stroke="#5A5A5A" stroke-width="1.04092" stroke-miterlimit="10"/>
<path d="M231.569 430.916L116.034 565.578" stroke="#5A5A5A" stroke-width="1.04092" stroke-miterlimit="10"/>
<path d="M388.918 490.259L235.879 432.535" stroke="#5A5A5A" stroke-width="1.04092" stroke-miterlimit="10"/>
<path d="M399.361 460.587L230.989 435.564" stroke="#5A5A5A" stroke-width="1.04092" stroke-miterlimit="10"/>
<path d="M243.255 421.87L388.006 336.716" stroke="#5A5A5A" stroke-width="1.04092" stroke-miterlimit="10"/>
<path d="M399.029 367.175L234.594 424.899" stroke="#5A5A5A" stroke-width="1.04092" stroke-miterlimit="10"/>
<path d="M404.541 429.754L237.329 395.103" stroke="#5A5A5A" stroke-width="1.04092" stroke-miterlimit="10"/>
<path d="M404.292 396.265L238.158 398.589" stroke="#5A5A5A" stroke-width="1.04092" stroke-miterlimit="10"/>
<path d="M238.987 414.151L267.125 338.292" stroke="#5A5A5A" stroke-width="1.04092" stroke-miterlimit="10"/>
<path d="M244.084 410.997L327.711 264.26" stroke="#5A5A5A" stroke-width="1.04092" stroke-miterlimit="10"/>
<path d="M245.41 379.79L371.596 308.372" stroke="#5A5A5A" stroke-width="1.04092" stroke-miterlimit="10"/>
<path d="M351.249 284.22L252.497 366.552" stroke="#5A5A5A" stroke-width="1.04092" stroke-miterlimit="10"/>
<path d="M223.074 387.966L92.8688 282.561" stroke="#5A5A5A" stroke-width="1.04092" stroke-miterlimit="10"/>
<path d="M226.348 379.79L174.754 236.207" stroke="#5A5A5A" stroke-width="1.04092" stroke-miterlimit="10"/>
<path d="M233.02 363.025L207.285 230.812" stroke="#5A5A5A" stroke-width="1.04092" stroke-miterlimit="10"/>
<path d="M213.625 392.53L269.901 236.829" stroke="#5A5A5A" stroke-width="1.04092" stroke-miterlimit="10"/>
<path d="M878.66 395.601L776.22 425.355" stroke="#5A5A5A" stroke-width="1.04092" stroke-miterlimit="10"/>
<path d="M901.079 453.948L809.413 570.184" stroke="#5A5A5A" stroke-width="1.04092" stroke-miterlimit="10"/>
<path d="M870.496 401.66L803.529 288.08" stroke="#5A5A5A" stroke-width="1.04092" stroke-miterlimit="10"/>
<path d="M879.903 374.313L751.728 319.245" stroke="#5A5A5A" stroke-width="1.04092" stroke-miterlimit="10"/>
<path d="M862.912 416.89L736.685 346.758" stroke="#5A5A5A" stroke-width="1.04092" stroke-miterlimit="10"/>
<path d="M843.229 419.172L726.864 377.259" stroke="#5A5A5A" stroke-width="1.04092" stroke-miterlimit="10"/>
<path d="M877.292 389.46L723.963 408.466" stroke="#5A5A5A" stroke-width="1.04092" stroke-miterlimit="10"/>
<path d="M857.608 349.165L770.086 292.354" stroke="#5A5A5A" stroke-width="1.04092" stroke-miterlimit="10"/>
<path d="M862.912 433.572L783.347 550.14" stroke="#5A5A5A" stroke-width="1.04092" stroke-miterlimit="10"/>
<path d="M888.646 448.968L745.926 499.347" stroke="#5A5A5A" stroke-width="1.04092" stroke-miterlimit="10"/>
<path d="M879.903 441.581L732.707 471.087" stroke="#5A5A5A" stroke-width="1.04092" stroke-miterlimit="10"/>
<path d="M847.455 435.149L762.005 526.86" stroke="#5A5A5A" stroke-width="1.04092" stroke-miterlimit="10"/>
</g>
<defs>
<clipPath id="clip0_67_753">
<rect width="1129" height="636" fill="white" transform="matrix(-1 0 0 1 1129 0)"/>
</clipPath>
</defs>
</svg>
